<?xml version="1.0" encoding="UTF-8" standalone="no"?>
<svg xmlns:dc="http://purl.org/dc/elements/1.1/" xmlns:cc="http://creativecommons.org/ns#" xmlns:rdf="http://www.w3.org/1999/02/22-rdf-syntax-ns#" xmlns:svg="http://www.w3.org/2000/svg" xmlns="http://www.w3.org/2000/svg" xmlns:sodipodi="http://sodipodi.sourceforge.net/DTD/sodipodi-0.dtd" xmlns:inkscape="http://www.inkscape.org/namespaces/inkscape" width="64" height="64" version="1.1" viewBox="0 0 64 64" id="svg2" inkscape:version="0.91 r13725" sodipodi:docname="installer.svg" inkscape:export-filename="/home/wolf/Documents/lubuntu/brand2/installer.png" inkscape:export-xdpi="90" inkscape:export-ydpi="90">
  <metadata id="metadata22">
    <rdf:RDF>
      <cc:Work rdf:about="">
        <dc:format>image/svg+xml</dc:format>
        <dc:type rdf:resource="http://purl.org/dc/dcmitype/StillImage"/>
        <dc:title/>
      </cc:Work>
    </rdf:RDF>
  </metadata>
  <defs id="defs20"/>
  <sodipodi:namedview pagecolor="#ffffff" bordercolor="#666666" borderopacity="1" objecttolerance="10" gridtolerance="10" guidetolerance="10" inkscape:pageopacity="0" inkscape:pageshadow="2" inkscape:window-width="640" inkscape:window-height="480" id="namedview18" showgrid="false" inkscape:zoom="2.8284271" inkscape:cx="67.75" inkscape:cy="32.25" inkscape:current-layer="svg2"/>
  <path style="opacity:0.2" d="M 32,5 C 16.488,5 4,17.488 4,33 4,48.512 16.488,61 32,61 47.512,61 60,48.512 60,33 60,17.488 47.512,5 32,5 Z" id="path4" inkscape:connector-curvature="0" sodipodi:nodetypes="sssss"/>
  <path style="fill:#0068c8;fill-opacity:1" d="M 32,4 C 16.488,4 4,16.488 4,32 4,47.512 16.488,60 32,60 47.512,60 60,47.512 60,32 60,16.488 47.512,4 32,4 Z" id="path8" inkscape:connector-curvature="0" sodipodi:nodetypes="sssss"/>
  <path style="opacity:0.2;fill:#ffffff" d="M 32,4 C 16.488,4 4,16.488 4,32 4,32.11345 4.01128,32.224113 4.017578,32.335938 4.3691213,17.134181 16.710728,5 32,5 47.289272,5 59.630879,17.134181 59.982422,32.335938 59.98872,32.224113 60,32.11345 60,32 60,16.488 47.512,4 32,4 Z" id="path10" inkscape:connector-curvature="0" sodipodi:nodetypes="sscscss"/>
  <path style="fill:#ffffff;fill-opacity:1;stroke:none" d="m 35.637934,14.92396 c -1.197918,0.0065 -2.394572,0.307849 -3.448511,0.877991 -1.297152,0.701718 -2.372604,1.806871 -3.038786,3.122634 -0.666166,1.315763 -0.920078,2.836364 -0.71785,4.297239 0.202245,1.46086 0.859704,2.855462 1.858264,3.940771 -0.518831,-0.965098 -0.76467,-2.07505 -0.702399,-3.169 0.06225,-1.093951 0.432535,-2.168707 1.057538,-3.068697 0.625004,-0.899991 1.502768,-1.622331 2.506061,-2.062794 1.003293,-0.440463 2.129165,-0.597573 3.214702,-0.448536 1.521006,0.208826 2.949134,1.029897 3.894745,2.239374 l 15.152784,0 -13.295185,-1.832276 c -1.106029,-2.100259 -3.294449,-3.591889 -5.653678,-3.853307 -0.274857,-0.03048 -0.551255,-0.04475 -0.827685,-0.04345 z m -23.826848,2.589585 c -0.973901,1.924003 -1.359081,4.141021 -1.091405,6.280772 0.267692,2.139768 1.187186,4.193662 2.605051,5.81844 0.793446,0.909248 1.743856,1.67669 2.790841,2.276208 l -2.964795,-0.833603 c -0.14299,1.67134 0.185789,3.380518 0.938494,4.879606 0.752705,1.499087 1.927262,2.783302 3.353152,3.666853 2.116666,1.311597 4.782091,1.703715 7.186713,1.056891 -2.408756,0.01718 -4.795854,-1.179145 -6.223885,-3.119019 -0.805783,-1.0946 -1.312374,-2.407169 -1.451148,-3.759262 l 14.076828,2.302179 -11.380698,-3.1999 c -0.91048,-0.442084 -1.742429,-1.046661 -2.43669,-1.783283 -0.959975,-1.018565 -1.657398,-2.282677 -2.007219,-3.637916 -0.400533,-1.55176 -0.341165,-3.219079 0.168377,-4.738545 l 16.785782,9.41033 -20.349398,-14.619751 z m 27.374008,7.348508 c -0.332183,0.68896 -0.563268,1.426458 -0.683334,2.181838 -0.37234,2.342823 0.324385,4.709558 1.018744,6.977903 0.694342,2.268345 1.402123,4.62871 1.051945,6.974953 -0.261629,1.752967 -1.117053,3.393909 -2.314014,4.701047 -1.196978,1.307138 -2.72442,2.289421 -4.365638,2.958537 -2.704479,1.102624 -5.746086,1.361658 -8.598094,0.732326 l 0,7.799347 2.345271,-5.567203 c 3.039532,0.693207 6.293467,0.412805 9.169598,-0.790203 2.058951,-0.861196 3.937836,-2.20199 5.292962,-3.975303 1.355109,-1.773296 2.164037,-3.98952 2.106841,-6.220593 -0.06874,-2.681475 -1.336141,-5.166525 -2.562608,-7.552066 -1.226483,-2.385525 -2.469098,-4.889787 -2.482716,-7.572121 -0.0012,-0.216348 0.0065,-0.432632 0.02108,-0.648462 z" id="path4489" inkscape:connector-curvature="0"/>
  <circle style="fill:#1caff3" cx="48" cy="46" r="16" id="circle12"/>
  <path style="fill:#ffffff" d="m 47.966,54 -5.9656,-8 4,0 0,-8 4,0 0,8 4,0 z" id="path14"/>
  <path style="opacity:0.2" d="M 32.025391,46.5 A 16,16.001894 0 0 0 32,46.998106 16,16.001894 0 0 0 48,63 16,16.001894 0 0 0 64,46.998106 16,16.001894 0 0 0 63.982422,46.50586 16,16.001894 0 0 1 48,61.999882 16,16.001894 0 0 1 32.025391,46.5 Z" id="path16"/>
</svg>