<?xml version="1.0" encoding="UTF-8" standalone="no"?>
<!-- Created with Inkscape (http://www.inkscape.org/) -->

<svg
   width="10.583mm"
   height="10.583mm"
   viewBox="0 0 10.583 10.583"
   version="1.1"
   id="svg5"
   xml:space="preserve"
   inkscape:version="1.2.2 (b0a8486541, 2022-12-01)"
   sodipodi:docname="ubuntu-unity-installer.svg"
   xmlns:inkscape="http://www.inkscape.org/namespaces/inkscape"
   xmlns:sodipodi="http://sodipodi.sourceforge.net/DTD/sodipodi-0.dtd"
   xmlns:xlink="http://www.w3.org/1999/xlink"
   xmlns="http://www.w3.org/2000/svg"
   xmlns:svg="http://www.w3.org/2000/svg"><sodipodi:namedview
     id="namedview7"
     pagecolor="#ffffff"
     bordercolor="#000000"
     borderopacity="0.25"
     inkscape:showpageshadow="2"
     inkscape:pageopacity="0.0"
     inkscape:pagecheckerboard="0"
     inkscape:deskcolor="#d1d1d1"
     inkscape:document-units="mm"
     showgrid="false"
     inkscape:zoom="1.5393939"
     inkscape:cx="218.91732"
     inkscape:cy="229.96063"
     inkscape:window-width="1920"
     inkscape:window-height="1052"
     inkscape:window-x="0"
     inkscape:window-y="0"
     inkscape:window-maximized="1"
     inkscape:current-layer="layer1" /><defs
     id="defs2"><linearGradient
       id="a"
       gradientTransform="translate(384.57,500.8)"
       gradientUnits="userSpaceOnUse"
       x1="10"
       x2="15"
       y1="36"
       y2="41"><stop
         offset="0"
         stop-color="#292c2f"
         id="stop381" /><stop
         offset="1"
         stop-opacity="0"
         id="stop383" /></linearGradient><linearGradient
       id="e"
       gradientTransform="matrix(0.26458333,0,0,0.26458333,2.6723,-0.79375)"
       gradientUnits="userSpaceOnUse"
       x1="9.9049997"
       x2="14.905"
       xlink:href="#a"
       y1="36"
       y2="41" /><linearGradient
       id="d"
       gradientTransform="matrix(0.26458333,0,0,0.26458333,-1.05833,-1.058334)"
       gradientUnits="userSpaceOnUse"
       x2="0"
       y1="20"
       y2="44"><stop
         offset="0"
         stop-color="#eff0f1"
         id="stop376" /><stop
         offset="1"
         stop-color="#bdc3c7"
         id="stop378" /></linearGradient><linearGradient
       id="c"
       gradientUnits="userSpaceOnUse"
       x1="10"
       x2="34"
       xlink:href="#a"
       y1="10"
       y2="34"
       gradientTransform="matrix(0.26458333,0,0,0.26458333,-1.05833,-1.058334)" /><linearGradient
       id="b"
       gradientTransform="matrix(0.26458333,0,0,0.28663106,-1.05833,-2.868084)"
       gradientUnits="userSpaceOnUse"
       x1="25.07"
       x2="25"
       y1="33.844002"
       y2="10"><stop
         offset="0"
         stop-color="#73ba25"
         id="stop387"
         style="stop-color:#7104c5;stop-opacity:1;" /><stop
         offset="1"
         stop-color="#96cb5c"
         id="stop389"
         style="stop-color:#b360fa;stop-opacity:1;" /></linearGradient><linearGradient
       inkscape:collect="always"
       xlink:href="#a"
       id="linearGradient579"
       gradientUnits="userSpaceOnUse"
       gradientTransform="matrix(0.26458333,0,0,0.26458333,-1.05833,-0.79375)"
       x1="10"
       y1="36"
       x2="15"
       y2="41" /></defs><g
     inkscape:label="Layer 1"
     inkscape:groupmode="layer"
     id="layer1"><path
       d="M 1.05834,0 H 9.525 V 6.879166 H 1.05834 Z"
       fill="url(#b)"
       id="path392"
       style="fill:url(#b);stroke-width:0.264583" /><path
       d="M 5.55625,1.587499 9.525,5.556249 v 1.322917 h 1.05834 -3.70417 l -1.5875,-1.5875 z"
       fill="url(#c)"
       opacity="0.2"
       id="path394"
       style="fill:url(#c);stroke-width:0.264583" /><path
       d="M 5.02709,1.587499 V 4.233333 L 3.83646,3.042708 3.43959,3.439583 5.29167,5.291666 7.14375,3.439583 6.74688,3.042708 5.55625,4.233333 V 1.587499 Z"
       fill="#fcfcfc"
       id="path396"
       style="stroke-width:0.264583" /><path
       d="m 5.29167,7.937499 c -0.43974,0 -0.79375,0.354013 -0.79375,0.79375 0,0.439738 0.35401,0.79375 0.79375,0.79375 A 0.79189791,0.79189791 0 0 0 6.03594,8.995833 H 8.25183 A 0.79110416,0.79110416 0 0 0 9.78985,8.731249 c 0,-0.439737 -0.35401,-0.79375 -0.79375,-0.79375 A 0.79189791,0.79189791 0 0 0 8.25183,8.466666 H 6.03594 A 0.79110416,0.79110416 0 0 0 5.29167,7.937499"
       fill="#232629"
       opacity="0.2"
       id="path398"
       style="stroke-width:0.264583" /><path
       d="m 0,6.879166 v 3.704167 H 10.58334 V 6.879166 Z"
       fill="url(#d)"
       id="path400"
       style="fill:url(#d);stroke-width:0.264583" /><path
       d="M 6.03515,8.995833 H 8.25103 A 0.79110416,0.79110416 0 0 0 9.78906,8.731249 c 0,-0.439737 -0.35402,-0.79375 -0.79375,-0.79375 A 0.79189791,0.79189791 0 0 0 8.25103,8.466666 H 6.03515 c 0.0497,0.264583 0.0497,0.264583 0,0.529167"
       fill="#4d4d4d"
       opacity="0.779"
       id="path402"
       style="stroke-width:0.264583" /><path
       d="m 4.78896,9.347729 1.25995,1.23481 h 2.1545 L 5.78433,8.087783 Z"
       fill="url(#e)"
       opacity="0.2"
       id="path404"
       style="fill:url(#e);stroke-width:0.264583" /><path
       d="m 1.05834,9.347729 1.22211,1.23481 H 5.82084 L 4.53311,8.747125 2.64584,8.729395 2.0537,8.087781 Z"
       fill="url(#a)"
       opacity="0.2"
       id="path406"
       style="fill:url(#linearGradient579);stroke-width:0.264583" /><path
       d="m 1.5875,7.937499 c -0.43973,0 -0.79375,0.354013 -0.79375,0.79375 0,0.439738 0.35402,0.79375 0.79375,0.79375 A 0.79189791,0.79189791 0 0 0 2.33178,8.995833 H 4.54766 A 0.79110416,0.79110416 0 0 0 6.08568,8.731249 c 0,-0.439737 -0.35401,-0.79375 -0.79375,-0.79375 A 0.79189791,0.79189791 0 0 0 4.54766,8.466666 H 2.33178 A 0.79110416,0.79110416 0 0 0 1.5875,7.937499"
       fill="#35b9ab"
       id="path408"
       style="fill:#863ac1;fill-opacity:1;stroke-width:0.264583" /><path
       d="m 0,10.318749 h 10.58334 v 0.264584 H 0 Z"
       fill="#95a5a6"
       id="path410"
       style="stroke-width:0.264583" /><path
       d="M 0,6.879166 H 10.58334 V 7.143749 H 0 Z"
       fill="#eff0f1"
       id="path412"
       style="stroke-width:0.264583" /></g></svg>
